PathFileType	4	(x/y/z)	S10_M20_T58
DataRate	CameraRate	NumFrames	NumMarkers	Units	OrigDataRate	OrigDataStartFrame	OrigNumFrames
240	240	4	51	mm	240	1	538
Frame#	Time	Sternum			R.Acromium			L.Acromium			Top.Head			R.ASIS			L.ASIS			R.PSIS			L.PSIS			R.Great.Tro			L.Great.Tro			R.Iliac.Crest			L.Iliac.Crest			V.Sacral			R.Thigh.Upper.Post			R.Thigh.Lower.Ant			R.Thigh.Lower.Post			R.Thigh.Upper.Ant			R.Knee.Lat			R.Knee.Med			R.Shank.Upper.Post			R.Shank.Lower.Ant			R.Shank.Lower.Post			R.Shank.Upper.Ant			R.Ankle.Lat			R.Ankle.Med			R.Heel.Upper			R.Heel.Med			R.Heel.Lat			R.Toe.Lat			R.Toe.Med			R.Toe.Tip			L.Thigh.Upper.Post			L.Thigh.Lower.Ant			L.Thigh.Lower.Post			L.Thigh.Upper.Ant			L.Knee.Lat			L.Knee.Med			L.Shank.Upper.Post			L.Shank.Lower.Ant			L.Shank.Lower.Post			L.Shank.Upper.Ant			L.Ankle.Lat			L.Ankle.Med			L.Heel.Upper			L.Heel.Med			L.Heel.Lat			L.Toe.Lat			L.Toe.Med			L.Toe.Tip			Cervical.Spine			Back			
		X1	Y1	Z1	X2	Y2	Z2	X3	Y3	Z3	X4	Y4	Z4	X5	Y5	Z5	X6	Y6	Z6	X7	Y7	Z7	X8	Y8	Z8	X9	Y9	Z9	X10	Y10	Z10	X11	Y11	Z11	X12	Y12	Z12	X13	Y13	Z13	X14	Y14	Z14	X15	Y15	Z15	X16	Y16	Z16	X17	Y17	Z17	X18	Y18	Z18	X19	Y19	Z19	X20	Y20	Z20	X21	Y21	Z21	X22	Y22	Z22	X23	Y23	Z23	X24	Y24	Z24	X25	Y25	Z25	X26	Y26	Z26	X27	Y27	Z27	X28	Y28	Z28	X29	Y29	Z29	X30	Y30	Z30	X31	Y31	Z31	X32	Y32	Z32	X33	Y33	Z33	X34	Y34	Z34	X35	Y35	Z35	X36	Y36	Z36	X37	Y37	Z37	X38	Y38	Z38	X39	Y39	Z39	X40	Y40	Z40	X41	Y41	Z41	X42	Y42	Z42	X43	Y43	Z43	X44	Y44	Z44	X45	Y45	Z45	X46	Y46	Z46	X47	Y47	Z47	X48	Y48	Z48	X49	Y49	Z49	X50	Y50	Z50	X51	Y51	Z51	

1	0	-791.38	1228.4	296.93	-881.58	1387.4	460.01	-935.07	1415.9	158.27	-930.73	1707.1	332.11	-851	960	408.63	-843.26	983.8	180.19	-1049.1	987.34	312.86	-1041.4	993.94	232.46	-941.32	893.26	478.37	-899.7	920.34	117.69	-948.71	1042.8	453.15	-913.06	1060	152.74	-1068	957.04	275.43	-997.6	693.91	467.42	-972.56	602.77	424.44	-1036.6	614.58	451.67	-930.3	683.06	437.5	-1094.1	500.71	409.28	-1095.2	511	282.38	-1242.9	315.35	401.38	-1205.7	234.84	384.39	-1268.7	246.25	392.99	-1172.6	304.14	391.71	-1290.9	135.86	367.36	-1280.4	151.2	288.52	-1371.7	98.958	324.29	-1365.7	71.663	294.7	-1368.7	72.741	356.42	-1198.3	38.174	392.46	-1173.4	43.829	281.92	-1111.7	49.142	322.04	-831.8	644.09	122.62	-731.19	600.63	146.63	-794.14	558.47	146.51	-760.97	683.09	122.43	-723.73	499.63	159.29	-713.71	502.48	289.68	-684.62	280.12	168.48	NaN	NaN	NaN	-631.84	222	169.58	-621.99	300.93	166.34	-553.03	117.05	192.88	-545.75	141.91	276.36	-592.48	56.964	240.53	-563.95	38.606	275.66	-568.35	33.79	211.21	-413.79	116.53	169.75	-396.17	143.81	273.79	-359.83	182.99	225.76	-980.45	1456.7	333.97	-1076.5	1252.4	318.57
2	0.0041667	-786.16	1228	296.31	-876.25	1387.1	459.29	-929.92	1415.2	157.63	-926.02	1706.5	331.41	-845.48	959.25	408.2	-837.7	983.44	179.67	-1043.6	986.74	312.7	-1036	993.4	232.3	-935.95	892.47	478.07	-894.25	920.09	117.35	-943.07	1042.1	452.92	-907.76	1059.4	152.34	-1062.6	956.47	275.25	-992.83	693.34	467	-967.94	602.1	424.16	-1032	614.15	451.42	-925.51	682.37	437.35	-1089.7	500.33	409.05	-1090.5	510.48	282.07	-1240	316.19	401.35	-1203.5	235.36	384.53	-1266.4	247.37	393.21	-1169.8	304.36	391.73	-1289.6	137.13	367.67	-1279.1	152.28	288.82	-1370.6	100.85	324.55	-1364.9	73.706	294.9	-1368	74.644	356.62	-1198.1	38.184	392.52	-1173.1	43.88	282.02	-1111.5	48.888	322.07	-825.84	643.87	122.79	-725.37	600.48	147.31	-788.25	558.33	146.92	-755.07	682.88	122.92	-717.93	499.52	159.89	-708.47	502.37	290.16	-680.79	279.64	168.4	NaN	NaN	NaN	-630.14	220.15	170.66	-618.08	299.97	167.1	-550.68	115.9	193	-543.68	140.05	276.67	-590.94	57.032	240.77	-563.03	38.095	275.79	-567.55	33.579	211.35	-411.74	113.51	170.27	-394.05	140.27	274.26	-356.8	178.98	226.42	-975.32	1456.1	333.14	-1071.2	1251.7	318.34
3	0.0083333	-780.71	1227.6	295.68	-870.7	1386.7	458.54	-924.55	1414.4	156.94	-921.12	1705.9	330.67	-839.71	958.47	407.77	-831.89	983.08	179.15	-1037.8	986.13	312.52	-1030.3	992.86	232.11	-930.34	891.65	477.75	-888.55	919.86	116.99	-937.18	1041.4	452.68	-902.22	1058.9	151.93	-1056.8	955.89	275.04	-987.82	692.75	466.56	-963.1	601.41	423.88	-1027.1	613.7	451.15	-920.49	681.65	437.2	-1085.1	499.94	408.8	-1085.6	509.93	281.75	-1236.9	317.07	401.32	-1201.1	235.93	384.68	-1263.8	248.55	393.44	-1166.8	304.59	391.75	-1288.2	138.48	368	-1277.6	153.43	289.15	-1369.3	102.87	324.82	-1364.1	75.872	295.11	-1367.4	76.669	356.84	-1197.8	38.195	392.58	-1172.8	43.928	282.12	-1111.3	48.629	322.09	-819.66	643.67	122.96	-719.34	600.31	148.01	-782.15	558.2	147.33	-748.95	682.68	123.43	-711.94	499.4	160.5	-703.08	502.24	290.65	-676.74	279.17	168.34	NaN	NaN	NaN	-628.21	218.33	171.75	-613.97	299.01	167.89	-548.21	114.75	193.12	-541.46	138.16	277.02	-589.34	57.175	241.02	-562.06	37.616	275.93	-566.7	33.422	211.5	-409.61	110.36	170.79	-391.8	136.56	274.72	-353.62	174.75	227.07	-969.96	1455.4	332.28	-1065.6	1251	318.08
4	0.0125	-775.04	1227.1	295.03	-864.96	1386.4	457.77	-918.98	1413.6	156.23	-916.05	1705.3	329.91	-833.73	957.68	407.33	-825.88	982.72	178.63	-1031.9	985.52	312.33	-1024.4	992.32	231.91	-924.52	890.8	477.42	-882.62	919.65	116.61	-931.08	1040.6	452.42	-896.45	1058.4	151.52	-1050.9	955.31	274.82	-982.61	692.14	466.09	-958.04	600.69	423.58	-1022	613.23	450.87	-915.27	680.92	437.03	-1080.3	499.52	408.53	-1080.5	509.37	281.41	-1233.6	317.99	401.28	-1198.6	236.53	384.83	-1261.2	249.79	393.66	-1163.7	304.85	391.79	-1286.7	139.9	368.35	-1276.1	154.63	289.49	-1368	105	325.1	-1363.2	78.156	295.33	-1366.7	78.812	357.06	-1197.6	38.208	392.64	-1172.5	43.973	282.22	-1111.1	48.366	322.11	-813.31	643.5	123.13	-713.14	600.15	148.72	-775.9	558.08	147.73	-742.64	682.49	123.95	-705.8	499.29	161.09	-697.59	502.09	291.13	-672.5	278.72	168.28	NaN	NaN	NaN	-626.04	216.57	172.81	-609.66	298.09	168.69	-545.63	113.64	193.25	-539.09	136.3	277.4	-587.67	57.408	241.28	-561.04	37.182	276.07	-565.81	33.333	211.66	-407.4	107.1	171.31	-389.44	132.71	275.19	-350.31	170.32	227.72	-964.41	1454.7	331.39	-1059.9	1250.3	317.81
